<svg width="120" height="120" viewBox="0 0 120 120" fill="none" xmlns="http://www.w3.org/2000/svg">
<circle cx="60" cy="60" r="60" fill="white"/>
<path d="M75.4136 81.8906C73.902 81.8906 72.6719 83.2505 72.6719 84.9214C72.6719 86.5923 73.902 87.9521 75.4136 87.9521C76.9251 87.9521 78.1552 86.5923 78.1552 84.9214C78.1552 83.2505 76.9316 81.8906 75.4136 81.8906Z" fill="#70AEB9"/>
<path d="M86.9086 66.7012C83.5126 66.7012 80.7578 69.7464 80.7578 73.5004C80.7578 77.2545 83.5126 80.2997 86.9086 80.2997C90.3046 80.2997 93.0594 77.2545 93.0594 73.5004C93.0594 69.7464 90.3046 66.7012 86.9086 66.7012Z" fill="#70AEB9"/>
<path d="M104.52 44.6328C98.9446 44.6328 94.4297 49.6238 94.4297 55.7865C94.4297 61.9493 98.9512 66.9402 104.52 66.9402C110.095 66.9402 114.609 61.9493 114.609 55.7865C114.609 49.6238 110.095 44.6328 104.52 44.6328Z" fill="#70AEB9"/>
<path d="M51.5587 53.2051L49.7266 59.2304H50.466L50.9502 57.574H53.0637L53.5806 59.2304H54.3724L52.4748 53.2051H51.5522H51.5587ZM51.1596 56.8434L51.9775 54.0441L52.8347 56.8434H51.1596Z" fill="#72808A"/>
<path d="M64.2512 57.574L64.7747 59.2304H65.5664L63.6688 53.2051H62.7462L60.9141 59.2304H61.6535L62.1377 57.574H64.2512ZM63.1715 54.0441L64.0287 56.8434H62.3536L63.1781 54.0441H63.1715Z" fill="#72808A"/>
<path d="M76.5752 58.5H73.7747V56.453H75.9863V55.7152H73.7747V53.9864H76.5752V53.2559H73.0156V59.2305H76.5752V58.5Z" fill="#72808A"/>
<path d="M86.6809 53.2559H85.9219V59.2305H86.6809V53.2559Z" fill="#72808A"/>
<path d="M81.4755 58.1166L82.8103 54.2107L82.8692 54.8689L83.2487 59.2305H83.962L83.432 53.2559H82.3916L81.1483 56.9738L79.8985 53.2559H78.8647L78.3281 59.2305H79.0479L79.4209 54.8689L79.4798 54.2107L80.8146 58.1166H81.4755Z" fill="#72808A"/>
<path d="M70.5138 58.7893C70.8148 58.471 70.9653 57.972 70.9653 57.2776V55.1654C70.9653 54.5072 70.8148 54.0226 70.5203 53.7043C70.2259 53.3861 69.794 53.2559 69.264 53.2559H67V59.2305H69.2509C69.7809 59.2305 70.2128 59.1076 70.5138 58.7893ZM67.759 58.5144V53.9792H69.1986C69.9184 53.9937 70.1932 54.3336 70.2063 55.245V57.2559C70.1932 58.1817 69.9642 58.5 69.2051 58.5144H67.759Z" fill="#72808A"/>
<path d="M20.9847 55.7224H18.3215V53.2559H17.5625V59.2305H18.3215V56.453H20.9847V59.2305H21.7437V53.2559H20.9847V55.7224Z" fill="#72808A"/>
<path d="M25.3759 58.1383L25.3563 58.2468L25.3367 58.1528L23.9233 53.2559H23.125L24.9375 59.2305H25.7096L27.568 53.2559H26.8482L25.3759 58.1383Z" fill="#72808A"/>
<path d="M41.6572 58.1383L41.6375 58.2468L41.6179 58.1528L40.2045 53.2559H39.4062L41.2188 59.2305H41.9909L43.8558 53.2559H43.1294L41.6572 58.1383Z" fill="#72808A"/>
<path d="M47.4205 56.0045L46.2099 55.6139C45.8435 55.4909 45.6014 55.4331 45.6079 55.1003V54.6157C45.621 54.2758 45.7715 54.0009 46.1903 53.9864H48.4085V53.5235C48.4085 53.2993 48.1991 53.2559 47.9374 53.2559H46.2361C45.7323 53.2559 45.392 53.4367 45.2022 53.6971C45.0059 53.9575 44.8751 54.2107 44.8751 54.6157V55.2016C44.8685 55.9611 45.2611 56.1853 46.0202 56.3951L47.2765 56.8002C47.6495 56.9231 47.8327 57.0099 47.8327 57.3499V57.6031C47.8327 58.1383 47.5644 58.5072 47.0867 58.5072H44.8751V58.9701C44.8751 59.1654 45.0256 59.2378 45.1892 59.2378H47.0867C47.6233 59.2378 47.9505 59.0714 48.1468 58.8689C48.3431 58.6663 48.5655 58.2758 48.5655 57.632V57.2342C48.5721 56.4602 48.1075 56.2215 47.4205 56.0117V56.0045Z" fill="#72808A"/>
<path d="M28.9531 59.2305H32.5127V58.5H29.7122V56.453H31.9238V55.7152H29.7122V53.9864H32.5127V53.2559H28.9531V59.2305Z" fill="#72808A"/>
<path d="M36.9011 56.8436C37.5817 56.8436 38.1051 56.4096 38.1051 55.5416V54.5868C38.1051 54.1456 38.007 53.8056 37.778 53.5814C37.5489 53.3571 37.2152 53.2559 36.7637 53.2559H34.2969V59.2305H35.0559V56.8436H35.9654L37.4312 59.2305H38.3341L36.8357 56.8436H36.8946H36.9011ZM35.0559 56.1419V53.9864H36.5478C37.176 54.0081 37.3395 54.0805 37.3526 54.6446V55.4041C37.333 56.0045 37.2349 56.113 36.6198 56.1347H35.0559V56.1419Z" fill="#72808A"/>
<path d="M6.375 59.2305H9.9346V58.5H7.13403V56.453H9.3457V55.7152H7.13403V53.9864H9.9346V53.2559H6.375V59.2305Z" fill="#72808A"/>
<path d="M14.323 56.8436C15.0035 56.8436 15.527 56.4096 15.527 55.5416V54.5868C15.527 54.1456 15.4288 53.8056 15.1998 53.5814C14.9708 53.3571 14.6371 53.2559 14.1856 53.2559H11.7188V59.2305H12.4778V56.8436H13.3873L14.853 59.2305H15.756L14.2576 56.8436H14.3165H14.323ZM12.4778 56.1419V53.9864H13.9697C14.5978 54.0081 14.7614 54.0805 14.7745 54.6446V55.4041C14.7549 56.0045 14.6567 56.113 14.0417 56.1347H12.4778V56.1419Z" fill="#72808A"/>
<path d="M59.0656 59.2305H59.9032L57.9729 56.0985L59.8508 53.2559H58.9413L57.2662 55.7947H56.6249V53.2559H55.8594V59.2305H56.6249V56.5325H57.312L59.0656 59.2305Z" fill="#72808A"/>
<path d="M50.828 69.1033L51.345 70.7597H52.1367L50.2391 64.7344H49.3165L47.4844 70.7597H48.2238L48.708 69.1033H50.8215H50.828ZM49.7418 65.5734L50.599 68.3727H48.9239L49.7484 65.5734H49.7418Z" fill="#72808A"/>
<path d="M45.2746 69.1033L45.7981 70.7597H46.5898L44.6923 64.7344H43.7696L41.9375 70.7597H42.6769L43.1611 69.1033H45.2746ZM44.1884 65.5734L45.0456 68.3727H43.3705L44.195 65.5734H44.1884Z" fill="#72808A"/>
<path d="M74.3488 67.5332L73.1383 67.1354C72.7718 67.0124 72.5297 66.9546 72.5363 66.6218V66.1372C72.5494 65.7972 72.6999 65.5224 73.1186 65.5079H75.3368V65.045C75.3368 64.8207 75.1275 64.7773 74.8657 64.7773H73.1644C72.6606 64.7773 72.3203 64.9582 72.1306 65.2186C71.9343 65.479 71.8034 65.7321 71.8034 66.1372V66.7231C71.7969 67.4826 72.1895 67.7068 72.9485 67.9166L74.2048 68.3144C74.5778 68.4374 74.761 68.5242 74.761 68.8641V69.1173C74.761 69.6526 74.4927 70.0287 74.0085 70.0287H71.7969V70.4916C71.7969 70.6869 71.9474 70.7593 72.111 70.7593H74.0085C74.5451 70.7593 74.8723 70.5929 75.0686 70.3904C75.2649 70.1878 75.4873 69.7972 75.4873 69.1535V68.7556C75.4939 67.9889 75.0293 67.743 74.3423 67.5332H74.3488Z" fill="#72808A"/>
<path d="M69.0897 69.0383C69.0831 69.6965 68.8214 70.1016 68.2456 70.1088H67.3688C66.7864 70.1088 66.5312 69.6965 66.5247 69.0383V64.7852H65.7656V69.0745C65.7656 69.6821 65.9227 70.1378 66.2171 70.4343C66.505 70.7309 66.9173 70.8611 67.3949 70.8611H68.2063C68.7036 70.8611 69.1158 70.7164 69.3972 70.4126C69.6786 70.1088 69.8291 69.6459 69.8291 69.0383V64.7852H69.0897V69.0383Z" fill="#72808A"/>
<path d="M62.8441 67.2517H60.1809V64.7852H59.4219V70.7598H60.1809V67.9823H62.8441V70.7598H63.6031V64.7852H62.8441V67.2517Z" fill="#72808A"/>
<path d="M56.1837 68.3729C56.8642 68.3729 57.3876 67.9389 57.3876 67.0709V66.1161C57.3876 65.6821 57.2895 65.3349 57.0605 65.1107C56.8315 64.8864 56.4977 64.7852 56.0528 64.7852H53.5859V70.7598H54.345V68.3729H55.2545L56.7202 70.7598H57.6232L56.1248 68.3729H56.1837ZM54.3384 67.6712V65.5157H55.8303C56.4585 65.5374 56.6221 65.6097 56.6352 66.1739V66.9334C56.6155 67.541 56.5108 67.6423 55.9023 67.664H54.3384V67.6712Z" fill="#72808A"/>
</svg>
