<svg width="38" height="42" viewBox="0 0 38 42" fill="none" xmlns="http://www.w3.org/2000/svg">
<g clip-path="url(#clip0_635_2156)">
<path d="M33 16V13.6C32.984 7.994 32.81 5.022 30.934 3.108C28.866 1 25.538 1 18.884 1H15.118C8.462 1 5.136 1 3.068 3.108C1 5.216 1 8.612 1 15.4V24.6C1 31.388 1 34.782 3.068 36.892C4.904 38.764 7.732 38.972 13 38.996" stroke="#00E275" stroke-width="1.5" stroke-linecap="round"/>
<path d="M32.35 36.378L37 41M35 30C35 27.6131 34.0518 25.3239 32.364 23.636C30.6761 21.9482 28.3869 21 26 21C23.6131 21 21.3239 21.9482 19.636 23.636C17.9482 25.3239 17 27.6131 17 30C17 32.3869 17.9482 34.6761 19.636 36.364C21.3239 38.0518 23.6131 39 26 39C28.3869 39 30.6761 38.0518 32.364 36.364C34.0518 34.6761 35 32.3869 35 30Z" stroke="#00E275" stroke-width="1.5" stroke-linecap="round" stroke-linejoin="round"/>
<path d="M9 11H25M9 19H15" stroke="#00E275" stroke-width="1.5" stroke-linecap="round"/>
</g>
<defs>
<clipPath id="clip0_635_2156">
<rect width="38" height="42" fill="white"/>
</clipPath>
</defs>
</svg>
