<svg width="20" height="21" viewBox="0 0 20 21" fill="none" xmlns="http://www.w3.org/2000/svg">
<g clip-path="url(#clip0_734_3059)">
<path d="M13.5073 9.41998C13.8002 9.12708 13.8002 8.65222 13.5073 8.35932C13.2144 8.06643 12.7395 8.06643 12.4466 8.35932L8.96507 11.8409L7.55376 10.4296C7.26087 10.1367 6.78599 10.1367 6.4931 10.4296C6.20021 10.7225 6.20021 11.1974 6.49311 11.4902L8.43477 13.4319C8.72767 13.7248 9.20247 13.7247 9.49537 13.4319L13.5073 9.41998Z" fill="#BFFF00"/>
<path fill-rule="evenodd" clip-rule="evenodd" d="M10 0.895508C4.47715 0.895508 0 5.37266 0 10.8955C0 16.4183 4.47715 20.8955 10 20.8955C15.5228 20.8955 20 16.4183 20 10.8955C20 5.37266 15.5228 0.895508 10 0.895508ZM1.5 10.8955C1.5 6.20109 5.30558 2.39551 10 2.39551C14.6944 2.39551 18.5 6.20109 18.5 10.8955C18.5 15.5899 14.6944 19.3955 10 19.3955C5.30558 19.3955 1.5 15.5899 1.5 10.8955Z" fill="#BFFF00"/>
</g>
<defs>
<clipPath id="clip0_734_3059">
<rect width="20" height="21" fill="white"/>
</clipPath>
</defs>
</svg>
