<svg width="48" height="48" viewBox="0 0 48 48" fill="none" xmlns="http://www.w3.org/2000/svg">
<g clip-path="url(#clip0_635_2174)">
<path d="M28.9732 6.28579C29.4837 6.42937 29.9162 6.76981 30.1758 7.23224C30.4353 7.69467 30.5006 8.24125 30.3572 8.75179L21.4972 40.3278C21.4263 40.5807 21.3062 40.8172 21.1439 41.0237C20.9816 41.2303 20.7802 41.4028 20.5512 41.5315C20.3223 41.6602 20.0702 41.7426 19.8094 41.7738C19.5485 41.8051 19.2841 41.7847 19.0312 41.7138C18.7783 41.6429 18.5418 41.5228 18.3353 41.3605C18.1287 41.1982 17.9562 40.9968 17.8275 40.7678C17.6988 40.5389 17.6164 40.2868 17.5852 40.0259C17.5539 39.7651 17.5743 39.5007 17.6452 39.2478L26.5052 7.67179C26.5761 7.41863 26.6962 7.18192 26.8586 6.97521C27.021 6.7685 27.2226 6.59584 27.4518 6.46711C27.6811 6.33838 27.9334 6.2561 28.1945 6.22499C28.4555 6.19388 28.7201 6.21454 28.9732 6.28579ZM14.4152 14.0998C14.7901 14.4748 15.0008 14.9835 15.0008 15.5138C15.0008 16.0441 14.7901 16.5527 14.4152 16.9278L7.3452 23.9998L14.4152 31.0698C14.601 31.2555 14.7484 31.476 14.8491 31.7186C14.9497 31.9613 15.0015 32.2214 15.0016 32.4841C15.0017 32.7468 14.95 33.0069 14.8496 33.2497C14.7492 33.4924 14.6019 33.713 14.4162 33.8988C14.2305 34.0846 14.01 34.232 13.7674 34.3327C13.5247 34.4333 13.2646 34.4851 13.0019 34.4852C12.7392 34.4853 12.4791 34.4336 12.2363 34.3332C11.9936 34.2327 11.773 34.0855 11.5872 33.8998L3.1012 25.4138C2.72626 25.0387 2.51563 24.5301 2.51562 23.9998C2.51562 23.4695 2.72626 22.9608 3.1012 22.5858L11.5872 14.0998C11.9623 13.7248 12.4709 13.5142 13.0012 13.5142C13.5315 13.5142 14.0401 13.7248 14.4152 14.0998ZM33.5872 16.9278C33.3962 16.7433 33.2438 16.5226 33.139 16.2786C33.0342 16.0346 32.979 15.7722 32.9767 15.5066C32.9744 15.241 33.025 14.9777 33.1256 14.7319C33.2261 14.4861 33.3746 14.2628 33.5624 14.075C33.7502 13.8872 33.9735 13.7387 34.2193 13.6381C34.4651 13.5376 34.7284 13.487 34.994 13.4893C35.2596 13.4916 35.522 13.5468 35.766 13.6516C36.01 13.7564 36.2307 13.9088 36.4152 14.0998L44.9012 22.5858C45.2761 22.9608 45.4868 23.4695 45.4868 23.9998C45.4868 24.5301 45.2761 25.0387 44.9012 25.4138L36.4152 33.8998C36.0399 34.2748 35.531 34.4854 35.0005 34.4852C34.47 34.485 33.9612 34.2741 33.5862 33.8988C33.2112 33.5235 33.0006 33.0146 33.0008 32.4841C33.001 31.9535 33.2119 31.4448 33.5872 31.0698L40.6572 23.9998L33.5872 16.9278Z" fill="#46A8FF"/>
</g>
<defs>
<clipPath id="clip0_635_2174">
<rect width="48" height="48" fill="white"/>
</clipPath>
</defs>
</svg>
