<svg width="48" height="48" viewBox="0 0 48 48" fill="none" xmlns="http://www.w3.org/2000/svg">
<path d="M8.69531 9.45831C8.69531 5.6526 11.7776 2.57031 15.5799 2.57031H24.0005M24.0005 2.57031V16.3463M24.0005 2.57031H32.421C36.2233 2.57031 39.3056 5.6526 39.3056 9.45831M24.0005 16.3463H15.5799C11.7742 16.3463 8.69531 13.2606 8.69531 9.45488M24.0005 16.3463H32.421C36.2267 16.3463 39.3056 13.2606 39.3056 9.45488" stroke="#8A38F5" stroke-width="3" stroke-linecap="round" stroke-linejoin="round"/>
<path d="M39.3056 24.0002C39.3056 22.9953 39.1077 22.0002 38.7231 21.0717C38.3385 20.1433 37.7748 19.2996 37.0642 18.589C36.3536 17.8784 35.51 17.3148 34.5815 16.9302C33.6531 16.5456 32.658 16.3477 31.653 16.3477C30.6481 16.3477 29.653 16.5456 28.7245 16.9302C27.7961 17.3148 26.9524 17.8784 26.2418 18.589C25.5312 19.2996 24.9675 20.1433 24.583 21.0717C24.1984 22.0002 24.0005 22.9953 24.0005 24.0002C24.0005 26.0298 24.8067 27.9763 26.2418 29.4114C27.677 30.8465 29.6234 31.6528 31.653 31.6528C33.6826 31.6528 35.6291 30.8465 37.0642 29.4114C38.4993 27.9763 39.3056 26.0298 39.3056 24.0002ZM8.69531 38.5408C8.69531 34.7351 11.7776 31.6528 15.5799 31.6528H24.0005V37.7762C24.0005 42.0037 20.5719 45.4288 16.3479 45.4288H15.5799C11.7742 45.4288 8.69531 42.3431 8.69531 38.5408Z" stroke="#8A38F5" stroke-width="3" stroke-linecap="round" stroke-linejoin="round"/>
<path d="M8.69531 24.0002C8.69531 19.7728 12.1205 16.3477 16.3479 16.3477H24.0005V31.6528H16.3479C12.1205 31.6528 8.69531 28.2242 8.69531 24.0002Z" stroke="#8A38F5" stroke-width="3" stroke-linecap="round" stroke-linejoin="round"/>
</svg>
